# xmcd
#
# Track frame offsets:
#	150
#	18009
#	28897
#	43077
#	54959
#	66086
#	80841
#	94283
#	107735
#	119880
#	134978
#	148775
#	160053
#	172665
#	187569
#	199241
#	209721
#	223845
#	238810
#	256870
#	269188
#	286905
#	301493
#
# Disc length: 4234 seconds
#
# Revision: 0
# Processed by: cddbd v1.5.2PL0 Copyright (c) Steve Scherf et al.
# Submitted via: audiograbber 1.83.01
#
DISCID=68108817
DTITLE=Various Artist - DJ LRM and CEO - R&B Debut
DYEAR=2007
DGENRE=R&B
TTITLE0=T-Pain and Akon - Bartender
TTITLE1=Amerie - Gotta Work
TTITLE2=Young Stef, Peedie Crakk and Freway - Put It On Everything
TTITLE3=Chris Brown - Wall To Wall
TTITLE4=Ne-Yo - Put Your Hands Up
TTITLE5=Ciara - Do It
TTITLE6=Lloyd and Jim Jones - Get It Shawty (Remix)
TTITLE7=Paula Deanda and Bow Wow - Be Easy (Remix)
TTITLE8=Sisqo - Pop That (Timbaland Mix)
TTITLE9=Pretty Ricky and Sean Paul - Push It (Remix)
TTITLE10=Kelly Rowland and Lil Wayne - All On You
TTITLE11=Musiq Soulchild - Make You Happy
TTITLE12=Joe - If I Want Her
TTITLE13=Rihanna and Ne-Yo - Hate That I Love You
TTITLE14=Ne-Yo - Do You
TTITLE15=Raheem Devaughn and DJ Jazzy Jeff - My Soul Is Not 4 Sale
TTITLE16=Erykah Badu - Real Thing (Music Is Everything)
TTITLE17=Chrisette Michelle - Good Girl
TTITLE18=R. Kelly and Usher - Same Girl
TTITLE19=Melissa Jimenez - Wrong When You Gone
TTITLE20=Lil Mo and Da Brat - My Youngin'
TTITLE21=R. Kelly - Rise Up
TTITLE22=Tank - Please Don't Go
EXTD=
EXTT0=
EXTT1=
EXTT2=
EXTT3=
EXTT4=
EXTT5=
EXTT6=
EXTT7=
EXTT8=
EXTT9=
EXTT10=
EXTT11=
EXTT12=
EXTT13=
EXTT14=
EXTT15=
EXTT16=
EXTT17=
EXTT18=
EXTT19=
EXTT20=
EXTT21=
EXTT22=
PLAYORDER=
